# AST/ASF file generated using VICON BodyLanguage
# -----------------------------------------------
:version 1.10
:name VICON
:units
  mass 1.0
  length 0.45
  angle deg
:documentation
   .ast/.asf automatically generated from VICON data using
   VICON BodyBuilder and BodyLanguage model FoxedUp or BRILLIANT.MOD
:root
   order TX TY TZ RX RY RZ
   axis XYZ
   position 0 0 0  
   orientation 0 0 0 
:bonedata
  begin
     id 1 
     name lhipjoint
     direction 0.630082 -0.636569 0.44472 
     length 2.82754 
     axis 0 0 0  XYZ
  end
  begin
     id 2 
     name lfemur
     direction 0.34202 -0.939693 0  
     length 7.26371  
     axis 0 0 20  XYZ
    dof rx ry rz
    limits (-160.0 20.0)
           (-70.0 70.0)
           (-60.0 70.0)
  end
  begin
     id 3 
     name ltibia
     direction 0.34202 -0.939693 0   
     length 7.88616   
     axis 0 0 20   XYZ
    dof rx
    limits (-10.0 170.0)
  end
  begin
     id 4 
     name lfoot
     direction 0.0603448 -0.165796 0.984312   
     length 1.77861   
     axis -90 7.62852e-016 20   XYZ
    dof rx rz
    limits (-45.0 90.0)
           (-70.0 20.0)
  end
  begin
     id 5 
     name ltoes
     direction 1.53577e-011 -4.21876e-011 1   
     length 0.902235   
     axis -90 7.62852e-016 20   XYZ
    dof rx
    limits (-90.0 20.0)
  end
  begin
     id 6 
     name rhipjoint
     direction -0.656778 -0.61817 0.431866   
     length 2.9117  
     axis 0 0 0  XYZ 
  end
  begin
     id 7 
     name rfemur
     direction -0.34202 -0.939693 0   
     length 6.81603   
     axis 0 0 -20   XYZ
    dof rx ry rz
    limits (-160.0 20.0)
           (-70.0 70.0)
           (-70.0 60.0)
  end
  begin
     id 8 
     name rtibia
     direction -0.34202 -0.939693 0   
     length 8.05997   
     axis 0 0 -20   XYZ
    dof rx
    limits (-10.0 170.0)
 end
 begin
     id 9 
     name rfoot
     direction -0.0862404 -0.236944 0.967688   
     length 1.84899  
     axis -90 -7.62852e-016 -20   XYZ
    dof rx rz
    limits (-45.0 90.0)
           (-20.0 70.0)
  end
  begin
     id 10 
     name rtoes
     direction -1.53561e-011 -4.21798e-011 1   
     length 0.931579   
     axis -90 -7.62852e-016 -20   XYZ
    dof rx
    limits (-90.0 20.0)
  end
  begin
     id 11 
     name lowerback
     direction -0.0110203 0.991769 -0.127564   
     length 2.05686   
     axis 0 0 0   XYZ
    dof rx ry rz
    limits (-20.0 45.0)
           (-30.0 30.0)
           (-30.0 30.0)
  end
  begin
     id 12 
     name upperback
     direction 0.0109719 0.99993 -0.00432479   
     length 2.06234   
     axis 0 0 0   XYZ
    dof rx ry rz
    limits (-20.0 45.0)
           (-30.0 30.0)
           (-30.0 30.0)
  end
  begin
     id 13 
     name thorax
     direction 0.0173308 0.998351 0.0547306   
     length 2.09856   
     axis 0 0 0   XYZ
    dof rx ry rz
    limits (-20.0 45.0)
           (-30.0 30.0)
           (-30.0 30.0)
  end
  begin
     id 14 
     name lowerneck
     direction -0.0311736 0.989033 0.144366   
     length 1.98151   
     axis 0 0 0   XYZ
    dof rx ry rz
    limits (-20.0 45.0)
           (-30.0 30.0)
           (-30.0 30.0)
  end
  begin
     id 15 
     name upperneck
     direction 0.0421057 0.975772 -0.214698   
     length 2.01457   
     axis 0 0 0   XYZ
    dof rx ry rz
    limits (-20.0 45.0)
           (-30.0 30.0)
           (-30.0 30.0)
  end
  begin
     id 16
     name head
     direction 0.0136911 0.995958 -0.0887718  
     length 2.03562  
     axis 0 0 0   XYZ
    dof rx ry rz
    limits (-20.0 45.0)
           (-30.0 30.0)
           (-30.0 30.0)
  end
  begin
     id 17 
     name lclavicle
     direction 0.915335 0.396201 0.0720134  
     length 4.16217  
     axis 0 0 0   XYZ
    dof ry rz
    limits (-20.0 10.0)
           (0.0 20.0)
  end
  begin
     id 18 
     name lhumerus
     direction 1 -4.48965e-011 6.383e-018   
     length 4.93042   
     axis -180 -30 -90   XYZ
    dof rx ry rz
    limits (-60.0 90.0)
           (-90.0 90.0)
           (-90.0 90.0)
  end
  begin
     id 19
     name lradius
     direction 1 -4.48972e-011 8.8689e-027   
     length 3.68177   
     axis -180 -30 -90   XYZ
    dof rx
    limits (-10.0 170.0)
  end
  begin
     id 20
     name lwrist
     direction 1 -4.48953e-011 1.17971e-026   
     length 1.84089   
     axis -7.69454e-015 90 90   XYZ
    dof ry
    limits (-180.0 0.0)
 end
  begin
     id 21 
     name lhand
     direction 1 -4.49027e-011 2.35802e-026   
     length 0.721479   
     axis -1.50533e-014 90 90   XYZ
    dof rx rz
    limits (-90.0 90.0)
           (-45.0 45.0)
  end
  begin
     id 22 
     name lfingers
     direction 1 -4.48915e-011 4.72027e-026   
     length 0.581675   
     axis -3.01059e-014 90 90   XYZ
    dof rx
    limits (0.0 90.0)
  end
  begin
     id 23
     name lthumb
     direction 0.707107 -6.34948e-011 0.707107   
     length 0.835172   
     axis -90 45 -5.12164e-014   XYZ
    dof rx rz
    limits (-45.0 45.0)
           (-45.0 45.0)
  end
  begin
     id 24 
     name rclavicle
     direction -0.882781 0.469197 0.0234974   
     length 3.95647  
     axis 0 0 0   XYZ 
    dof ry rz
    limits (-10.0 20.0)
           (-20.0 0.0)
  end
  begin
     id 25 
     name rhumerus
     direction -1 -4.48965e-011 -1.54906e-018  
     length 5.07905   
     axis -180 30 90   XYZ
    dof rx ry rz
    limits (-90.0 60.0)
           (-90.0 90.0)
           (-90.0 90.0)
  end
  begin
     id 26 
     name rradius
     direction -1 -4.48972e-011 5.47489e-027   
     length 3.54394   
     axis -180 30 90   XYZ
    dof rx
    limits (-10.0 170.0)
  end
  begin
     id 27 
     name rwrist
     direction -1 -4.48955e-011 1.17969e-026   
     length 1.77197   
     axis -7.69454e-015 -90 -90   XYZ
    dof ry
    limits (-180.0 0.0)
  end
  begin
     id 28
     name rhand
     direction -1 -4.48982e-011 2.35888e-026   
     length 0.681156   
     axis -1.50533e-014 -90 -90   XYZ
    dof rx rz
    limits (-90.0 90.0)
           (-45.0 45.0)
  end
  begin
     id 29
     name rfingers
     direction -1 -4.48955e-011 4.71877e-026   
     length 0.549165   
     axis -3.01059e-014 -90 -90   XYZ
    dof rx
    limits (0.0 90.0)
  end
  begin
     id 30
     name rthumb
     direction -0.707107 -6.3491e-011 0.707107   
     length 0.788495   
     axis -90 -45 5.12164e-014   XYZ
    dof rx rz
    limits (-45.0 45.0)
           (-45.0 45.0)
  end
:hierarchy
  begin
    root lhipjoint rhipjoint lowerback
    lhipjoint lfemur
    lfemur ltibia
    ltibia lfoot
    lfoot ltoes
    rhipjoint rfemur
    rfemur rtibia
    rtibia rfoot
    rfoot rtoes
    lowerback upperback
    upperback thorax
    thorax lowerneck lclavicle rclavicle
    lowerneck upperneck
    upperneck head
    lclavicle lhumerus
    lhumerus lradius
    lradius lwrist
    lwrist lhand lthumb
    lhand lfingers
    rclavicle rhumerus
    rhumerus rradius
    rradius rwrist
    rwrist rhand rthumb
    rhand rfingers
  end

#!OML:ASF H:\Bending\Project 1\Capture day 1\Session 1\Subject.ASF
:FULLY-SPECIFIED
:DEGREES
147
root -11.0216 17.5991 -16.4555 189.53 87.6441 182.845
lowerback 18.4938 -0.0313455 0.978108
upperback 2.70429 0.503697 2.05293
thorax -7.45624 0.320122 1.5177
lowerneck -24.32 -4.13325 -6.67782
upperneck 26.1035 -4.18778 3.62932
head 13.0254 -1.93432 1.78376
rclavicle 8.94531e-015 1.51076e-014
rhumerus -26.276 15.038 -91.7975
rradius 67.7131
rwrist 4.85177
rhand -25.5815 -19.4787
rfingers 7.12502
rthumb 0.949964 -49.4563
lclavicle 8.94531e-015 1.51076e-014
lhumerus -21.8615 -29.7174 96.8787
lradius 70.5992
lwrist 29.837
lhand -37.3822 15.3434
lfingers 7.12502
lthumb -10.4433 45.0641
rfemur -16.3126 -11.7551 14.2787
rtibia 29.8866
rfoot -18.5729 -11.3988
rtoes -1.81025
lfemur -23.4994 0.866427 -14.0843
ltibia 37.5931
lfoot -24.6703 3.56937
ltoes -23.7456
148
root -10.9496 17.65 -16.4527 193.381 87.7316 187.028
lowerback 17.7425 -0.00428061 1.01879
upperback 2.50671 0.521187 2.0927
thorax -7.26129 0.321624 1.53254
lowerneck -24.2735 -4.14008 -6.69624
upperneck 26.72 -4.20099 3.6728
head 13.2725 -1.93058 1.81016
rclavicle -4.17448e-015 -3.97569e-014
rhumerus -27.7815 15.917 -91.9406
rradius 69.4174
rwrist 4.46975
rhand -26.1003 -20.0724
rfingers 7.12502
rthumb 0.448834 -50.0517
lclavicle -4.17448e-015 -3.97569e-014
lhumerus -23.4714 -29.5537 97.3396
lradius 72.517
lwrist 29.737
lhand -37.5326 15.4898
lfingers 7.12502
lthumb -10.5884 45.2031
rfemur -14.3692 -11.1225 14.3954
rtibia 27.5147
rfoot -17.9462 -11.9819
rtoes -2.30865
lfemur -22.0273 -0.209719 -13.8724
ltibia 36.1285
lfoot -24.8713 3.24929
ltoes -24.4628
149
root -10.8762 17.6927 -16.4509 196.748 87.792 190.76
lowerback 17.0404 0.0291761 0.998357
upperback 2.30896 0.537957 2.1359
thorax -7.09162 0.325032 1.58628
lowerneck -24.2174 -4.16637 -6.71647
upperneck 27.3493 -4.23989 3.71324
head 13.528 -1.93794 1.8319
rclavicle 9.93923e-016 3.49861e-014
rhumerus -29.3975 16.9343 -92.1302
rradius 71.2824
rwrist 3.8378
rhand -26.7968 -20.9842
rfingers 7.12502
rthumb -0.223794 -50.9638
lclavicle 9.93923e-016 3.49861e-014
lhumerus -25.0261 -29.3039 97.798
lradius 74.5217
lwrist 29.62
lhand -37.6434 16.0229
lfingers 7.12502
lthumb -10.6953 45.7306
rfemur -12.4209 -10.4618 14.4799
rtibia 25.1995
rfoot -17.2721 -12.6403
rtoes -3.04414
lfemur -20.5843 -1.30492 -13.7099
ltibia 34.781
lfoot -24.9663 3.10493
ltoes -24.9187
150
root -10.802 17.7279 -16.4501 199.739 87.8234 194.097
lowerback 16.3462 0.0612275 0.925471
upperback 2.09997 0.545128 2.18441
thorax -6.93667 0.325486 1.67782
lowerneck -24.1578 -4.20377 -6.72158
upperneck 27.9773 -4.29634 3.74143
head 13.7863 -1.95235 1.84359
rclavicle -5.96354e-016 4.77083e-015
rhumerus -31.0916 18.0428 -92.3987
rradius 73.28
rwrist 2.95776
rhand -27.5476 -21.9473
rfingers 7.12502
rthumb -0.948933 -51.9249
lclavicle -5.96354e-016 4.77083e-015
lhumerus -26.4993 -28.9976 98.2296
lradius 76.6038
lwrist 29.541
lhand -37.8042 16.894
lfingers 7.12502
lthumb -10.8504 46.5937
rfemur -10.5361 -9.79853 14.5587
rtibia 22.9581
rfoot -16.5506 -13.3486
rtoes -3.92491
lfemur -19.2421 -2.36444 -13.5851
ltibia 33.5704
lfoot -24.8957 3.26513
ltoes -25.1208
151
root -10.7277 17.7565 -16.4498 202.733 87.8261 197.372
lowerback 15.6311 0.0876327 0.823959
upperback 1.86978 0.54164 2.24213
thorax -6.79107 0.321742 1.79769
lowerneck -24.1075 -4.24836 -6.71318
upperneck 28.5973 -4.36229 3.75348
head 14.0466 -1.97098 1.84497
rclavicle -1.39149e-015 2.22639e-014
rhumerus -32.6592 19.0902 -92.7455
rradius 75.2921
rwrist 1.97728
rhand -28.1864 -22.7948
rfingers 7.12502
rthumb -1.56596 -52.7688
lclavicle -1.39149e-015 2.22639e-014
lhumerus -27.8615 -28.6555 98.6224
lradius 78.7288
lwrist 29.5287
lhand -38.0689 17.9535
lfingers 7.12502
lthumb -11.1057 47.6396
rfemur -8.77427 -9.17435 14.6605
rtibia 20.8053
rfoot -15.8111 -14.0386
rtoes -4.75229
lfemur -18.067 -3.29344 -13.4719
ltibia 32.5177
lfoot -24.6216 3.753
ltoes -25.2848
152
root -10.6545 17.78 -16.4496 206.189 87.8032 201.028
lowerback 14.8933 0.109304 0.72352
upperback 1.61595 0.53458 2.31198
thorax -6.65611 0.316646 1.93038
lowerneck -24.0823 -4.30186 -6.70911
upperneck 29.2042 -4.4337 3.75349
head 14.3108 -1.99353 1.84099
rclavicle -3.57812e-015 -1.51076e-014
rhumerus -33.9714 19.965 -93.1324
rradius 77.2001
rwrist 1.06952
rhand -28.6664 -23.4492
rfingers 7.12502
rthumb -2.02948 -53.4193
lclavicle -3.57812e-015 -1.51076e-014
lhumerus -29.0834 -28.2767 98.9694
lradius 80.8592
lwrist 29.5737
lhand -38.4058 19.0016
lfingers 7.12502
lthumb -11.4306 48.67
rfemur -7.15965 -8.61975 14.807
rtibia 18.7426
rfoot -15.0965 -14.6444
rtoes -5.32214
lfemur -17.0906 -3.98807 -13.3392
ltibia 31.6332
lfoot -24.1473 4.46794
ltoes -25.6687
153
root -10.5839 17.7998 -16.4489 210.348 87.7576 205.319
lowerback 14.1601 0.130647 0.648309
upperback 1.34668 0.534542 2.39266
thorax -6.53817 0.315056 2.05863
lowerneck -24.0947 -4.36889 -6.73123
upperneck 29.7871 -4.51099 3.75022
head 14.5776 -2.02167 1.83829
rclavicle 9.93923e-016 -1.59028e-015
rhumerus -34.9884 20.6252 -93.5015
rradius 79.1063
rwrist 0.380645
rhand -28.9871 -24.086
rfingers 7.12502
rthumb -2.33921 -54.0529
lclavicle 9.93923e-016 -1.59028e-015
lhumerus -30.1411 -27.8414 99.2602
lradius 82.9746
lwrist 29.6339
lhand -38.6944 19.8624
lfingers 7.12502
lthumb -11.709 49.5151
rfemur -5.67085 -8.13016 15.0049
rtibia 16.7532
rfoot -14.4356 -15.1488
rtoes -5.53093
lfemur -16.295 -4.37915 -13.1665
ltibia 30.9084
lfoot -23.5298 5.23385
ltoes -26.438
154
root -10.5169 17.8165 -16.4476 214.987 87.6921 210.062
lowerback 13.4766 0.155848 0.607109
upperback 1.07873 0.548648 2.47684
thorax -6.44473 0.320444 2.1685
lowerneck -24.1466 -4.45158 -6.79135
upperneck 30.3244 -4.59553 3.75133
head 14.8386 -2.05682 1.84123
rclavicle 6.55989e-015 2.54444e-014
rhumerus -35.8749 21.0552 -93.8043
rradius 81.0703
rwrist 0.0391063
rhand -29.2804 -24.7372
rfingers 7.12502
rthumb -2.62254 -54.7008
lclavicle 6.55989e-015 2.54444e-014
lhumerus -31.0213 -27.3265 99.4806
lradius 85.0779
lwrist 29.6512
lhand -38.7759 20.4525
lfingers 7.12502
lthumb -11.7876 50.1008
rfemur -4.25152 -7.66398 15.2425
rtibia 14.8089
rfoot -13.8233 -15.5976
rtoes -5.43719
lfemur -15.6205 -4.46754 -12.9582
ltibia 30.3148
lfoot -22.8726 5.88582
ltoes -27.6021
155
root -10.4545 17.8306 -16.4458 219.412 87.6131 214.608
lowerback 12.8853 0.185298 0.589663
upperback 0.830452 0.575223 2.55204
thorax -6.38039 0.332188 2.25327
lowerneck -24.225 -4.54538 -6.88293
upperneck 30.787 -4.68496 3.75747
head 15.0769 -2.09783 1.84896
rclavicle 4.67144e-015 -8.74653e-015
rhumerus -36.5984 21.2441 -94.0156
rradius 83.0994
rwrist 0.126443
rhand -29.61 -25.5377
rfingers 7.12502
rthumb -2.94084 -55.4972
lclavicle 4.67144e-015 -8.74653e-015
lhumerus -31.7233 -26.7252 99.6189
lradius 87.1855
lwrist 29.5734
lhand -38.5308 20.8155
lfingers 7.12502
lthumb -11.5512 50.4772
rfemur -2.83916 -7.16487 15.4895
rtibia 12.886
rfoot -13.2264 -16.0744
rtoes -5.22502
lfemur -14.9911 -4.33327 -12.7454
ltibia 29.8107
lfoot -22.2906 6.34026
ltoes -29.0212
156
root -10.3966 17.8422 -16.4443 222.687 87.5354 218.053
lowerback 12.407 0.214065 0.569766
upperback 0.613575 0.602567 2.6038
thorax -6.34469 0.34488 2.31477
lowerneck -24.3047 -4.6385 -6.98385
upperneck 31.1491 -4.77079 3.76199
head 15.2722 -2.14009 1.85637
rclavicle -2.98177e-016 -2.06736e-014
rhumerus -37.1465 21.2138 -94.1378
rradius 85.1945
rwrist 0.640117
rhand -30.0087 -26.5579
rfingers 7.12502
rthumb -3.32585 -56.5117
lclavicle -2.98177e-016 -2.06736e-014
lhumerus -32.2549 -26.0599 99.6739
lradius 89.3046
lwrist 29.373
lhand -37.9456 21.0892
lfingers 7.12502
lthumb -10.9868 50.7817
rfemur -1.398 -6.5978 15.7025
rtibia 10.9831
rfoot -12.6098 -16.6491
rtoes -5.08962
lfemur -14.3467 -4.11169 -12.5789
ltibia 29.3529
lfoot -21.8661 6.61597
ltoes -30.4833
157
root -10.3432 17.8515 -16.4438 223.982 87.4791 219.567
lowerback 12.0319 0.233774 0.516283
upperback 0.427793 0.613498 2.61991
thorax -6.33247 0.350443 2.36069
lowerneck -24.3554 -4.71594 -7.06641
upperneck 31.3995 -4.84061 3.75406
head 15.4085 -2.17695 1.85679
rclavicle 6.95746e-016 -2.8625e-014
rhumerus -37.5254 21.0133 -94.1928
rradius 87.339
rwrist 1.49506
rhand -30.4702 -27.7941
rfingers 7.12502
rthumb -3.77154 -57.7404
lclavicle 6.95746e-016 -2.8625e-014
lhumerus -32.6229 -25.3806 99.6583
lradius 91.4124
lwrist 29.0552
lhand -37.1289 21.4247
lfingers 7.12502
lthumb -10.199 51.1575
rfemur 0.0586337 -6.57585 15.8355
rtibia 9.13296
rfoot -11.9616 -16.7401
rtoes -5.11687
lfemur -13.6679 -3.94584 -12.5118
ltibia 28.9089
lfoot -21.6196 6.80153
ltoes -31.7975
158
root -10.2939 17.8591 -16.4451 222.795 87.4565 218.62
lowerback 11.7241 0.236507 0.407424
upperback 0.260774 0.59301 2.59402
thorax -6.33643 0.341728 2.39904
lowerneck -24.3528 -4.76605 -7.11029
upperneck 31.55 -4.88383 3.72525
head 15.4827 -2.2026 1.84594
rclavicle 1.49089e-015 1.59028e-014
rhumerus -37.7524 20.6992 -94.2047
rradius 89.4905
rwrist 2.55237
rhand -30.9519 -29.1757
rfingers 7.12502
rthumb -4.23674 -59.1134
lclavicle 1.49089e-015 1.59028e-014
lhumerus -32.8238 -24.7501 99.5942
lradius 93.4487
lwrist 28.6586
lhand -36.2672 21.9074
lfingers 7.12502
lthumb -9.36759 51.6793
rfemur 1.47007 -6.6049 15.8253
rtibia 7.40286
rfoot -11.3251 -16.8325
rtoes -5.24518
lfemur -12.9818 -3.93408 -12.579
ltibia 28.4669
lfoot -21.5114 6.99452
ltoes -32.8488
